<?xml version="1.0" encoding="utf-8"?>
<!-- Generator: Adobe Illustrator 25.2.0, SVG Export Plug-In . SVG Version: 6.00 Build 0)  -->
<svg version="1.1" id="Layer_1" xmlns="http://www.w3.org/2000/svg" xmlns:xlink="http://www.w3.org/1999/xlink" x="0px" y="0px"
	 viewBox="0 0 800 800" style="enable-background:new 0 0 800 800;" xml:space="preserve">
<style type="text/css">
	.st0{display:none;fill:#252628;}
	.st1{fill:#F28A23;}
	.st2{font-family:'ElectronicaDisplayStencil';}
	.st3{font-size:75px;}
	.st4{fill:#FFFFFF;}
	.st5{display:none;fill:#F6A117;}
	.st6{display:none;fill:#DA9B0D;}
</style>
<rect x="-0.85" y="0.38" class="st0" width="801.36" height="801.36"/>
<g>
	<g>
		<polygon class="st1" points="338.31,292.75 338.31,331.3 345.53,331.3 345.53,299.97 446.54,299.97 446.54,400.98 345.53,400.98 
			345.53,343.66 338.31,343.66 338.31,408.2 453.76,408.2 453.76,292.75 		"/>
		<g>
			<polygon class="st1" points="333.68,324.9 333.68,334.21 436.22,334.21 436.22,306.19 353.35,306.19 353.35,324.9 362.82,324.9 
				362.82,315.3 426.87,315.54 426.87,324.82 			"/>
			<polygon class="st1" points="362.86,350.03 362.86,378 372.22,378 372.22,359.46 409.54,359.46 409.54,350.03 333.27,350.03 
				333.27,340.68 418.89,340.68 418.89,368.81 381.56,368.81 381.56,387.36 353.48,387.36 353.56,350.03 			"/>
		</g>
		<polygon class="st1" points="341.29,295.73 341.29,334.21 343.25,334.21 343.25,297.69 448.82,297.69 448.82,403.26 
			343.25,403.26 343.25,340.68 341.29,340.68 341.29,405.22 450.78,405.22 450.78,295.73 		"/>
	</g>
</g>
<text transform="matrix(1 0 0 1 230.5814 474.5931)"><tspan x="0" y="0" class="st1 st2 st3">F</tspan><tspan x="44.7" y="0" class="st4 st2 st3">alsame</tspan></text>
<rect x="374.1" y="10.34" class="st5" width="71.55" height="57.76"/>
<rect x="457.72" y="10.34" class="st6" width="71.55" height="57.76"/>
<rect x="551.69" y="10.34" class="st5" width="71.55" height="57.76"/>
</svg>
